<svg xmlns="http://www.w3.org/2000/svg" width="40" height="40" fill="none"><rect width="40" height="40" fill="#3A1A55" rx="8"/><path stroke="#fff" stroke-miterlimit="10" stroke-width=".8" d="M20 31.364h-6.563l-1.92-3.33-1.542-2.67 1.542-2.676"/><path stroke="#fff" stroke-miterlimit="10" stroke-width=".8" d="M11.517 22.688H8.42L6.879 20l2.184-3.786.9-1.554 1.56-2.694 1.542-2.676.372-.654H20"/><path stroke="#fff" stroke-miterlimit="10" stroke-width=".8" d="M20 28.688h-5.015l-1.92-3.324-1.548-2.676L13.083 20H9.969l2.202-3.822.894-1.542 1.542-2.67.378-.654H20"/><path stroke="#fff" stroke-miterlimit="10" stroke-width=".8" d="M20 14.006h-3.462L13.082 20l3.456 5.994H20M9.968 20 8.42 22.688m23.16 0L30.03 20M20 31.364h6.564l1.92-3.33 1.542-2.67-1.542-2.676"/><path stroke="#fff" stroke-miterlimit="10" stroke-width=".8" d="m28.484 22.688 3.102-.024L33.122 20l-2.184-3.786-.9-1.554-1.56-2.694-1.542-2.676-.372-.654H20"/><path stroke="#fff" stroke-miterlimit="10" stroke-width=".8" d="M20 28.688h5.016l1.92-3.324 1.548-2.676L26.918 20h3.114l-2.202-3.822-.894-1.542-1.542-2.67-.378-.654H20"/><path stroke="#fff" stroke-miterlimit="10" stroke-width=".8" d="M20 14.006h3.462L26.918 20l-3.456 5.994H20m-3.462-11.988-1.554-2.694m8.479 2.694 1.554-2.694"/></svg>